<?xml version="1.0" encoding="UTF-8" standalone="no"?><!DOCTYPE svg PUBLIC "-//W3C//DTD SVG 1.1//EN" "http://www.w3.org/Graphics/SVG/1.1/DTD/svg11.dtd"><svg width="100%" height="100%" viewBox="0 0 568 213" version="1.1" xmlns="http://www.w3.org/2000/svg" xmlns:xlink="http://www.w3.org/1999/xlink" xml:space="preserve" xmlns:serif="http://www.serif.com/" style="fill-rule:evenodd;clip-rule:evenodd;stroke-linejoin:round;stroke-miterlimit:1.41421;"><g id="Ventures"><path id="s" d="M567.2,157.459c1.135,-13.048 -16.061,-15.666 -33.186,-13.426c-11.907,1.558 -29.666,13.067 -16.848,31.075c6.478,9.102 25.404,6.87 25.4,18.32c-0.002,9.783 -13.141,10.647 -13.141,10.647c0,0 -1.878,-8.125 -7.279,-11.267c-14.504,-8.437 -20.173,1.837 -16.593,7.25c3.567,5.393 13.569,10.391 35.337,7.774c20.765,-2.497 26.018,-20.731 19.846,-29.509c-7.562,-10.753 -25.743,-10.061 -27.428,-16.682c-3.052,-11.998 10.865,-13.409 10.865,-13.409c0,0 1.97,6.953 4.137,9.511c6.796,8.019 18.444,4.839 18.89,-0.284Z" style="fill:#e73a3a;"/><path d="M459.453,180.6c0,0 19.134,-1.92 26.288,-4.919c24.736,-10.369 22.742,-39.503 -13.271,-32.823c-21.171,3.927 -38.034,20.057 -34.351,44.393c3.007,19.87 24.109,23.26 38.075,19.877c14.536,-3.52 24.657,-16.907 24.657,-16.907l-5.868,-3.76c0,0 -7.62,12.204 -24.556,11.203c-9.781,-0.578 -10.974,-17.064 -10.974,-17.064Zm1.015,-5.882c-1.02,-17.007 17.776,-40.317 20.581,-16.881c2.104,17.579 -20.581,16.881 -20.581,16.881Z" style="fill:#e73a3a;"/><path id="r" d="M379.383,174.426c9.027,-31.526 -10.824,-18.549 -10.824,-18.549l0.086,-7.474c0,0 6.319,-5.5 21.44,-4.7c10.072,0.534 13.991,9.39 13.991,9.39c0,0 12.124,-13.435 22.818,-10.381c7.575,2.163 13.236,22.137 1.645,24.354c-10.157,1.943 -14.406,-13.501 -14.406,-13.501c-0.947,-1.238 -10.198,4.445 -10.985,9.467l-10.275,44.01l-20.822,-0.776c0,0 6.229,-27.987 7.332,-31.84Z" style="fill:#e73a3a;"/><path id="u" d="M287.58,148.765c0,0 20.355,-13.19 31.292,-1.024c4.504,5.011 3.092,17.868 -0.184,25.359c-13.681,31.282 6.27,25.054 13.697,16.303l10.782,-45.253l19.845,-1.916c0,0 -11.687,49.175 -11.589,49.821c1.248,8.201 15.802,1.29 15.802,1.29l-2.455,8.243c0,0 -2.927,6.359 -19.672,6.143c-8.264,-0.107 -13.482,-9.703 -13.482,-9.703c0,0 -6.76,5.741 -23.135,9.677c-14.165,3.405 -18.983,-10.342 -15.358,-23.028c2.082,-7.284 4.959,-15.856 6.702,-22.838c3.24,-12.975 -14.443,-6.023 -14.443,-6.023l2.198,-7.051Z" style="fill:#e73a3a;"/><path id="t" d="M250.49,126.879l21.183,0.349l-4.461,18.42l16.38,-0.033l-1.319,6.977l-16.683,0.073c0,0 -8.669,36.121 -8.371,42.516c0.327,7.033 17.392,1.245 17.392,1.245l-1.513,7.279c0,0 -30.055,13.104 -37.793,-4.697c-2.565,-5.9 9.021,-46.294 9.021,-46.294l-10.988,-0.033l1.721,-6.835l10.915,-0.406l4.516,-18.561Z" style="fill:#e73a3a;"/><path id="n" d="M141.399,154.775l1.262,-6.104c16.879,-6.757 29.916,-7.046 34.954,6.135c0,0 17.153,-17.633 33.899,-9.831c14.513,6.762 2.415,32.035 -0.18,43.161c-3.55,15.219 13.626,9.141 13.626,9.141l-1.27,5.238c0,0 -21.03,11.803 -31.136,0.056c-5.214,-6.059 -1.943,-20.553 -0.03,-25.093c7.59,-18.014 4.598,-32.329 -15.712,-16.566l-9.958,46.177l-21.529,-0.324c0,0 7.385,-32.117 9.052,-39.571c4.08,-18.246 -3.374,-14.526 -12.978,-12.419Z" style="fill:#e73a3a;"/><path d="M94.909,181.342c0,0 19.135,-1.92 26.288,-4.918c24.736,-10.37 22.742,-39.504 -13.271,-32.824c-21.171,3.927 -38.034,20.058 -34.351,44.394c3.007,19.869 24.109,23.259 38.075,19.877c14.536,-3.52 24.657,-16.907 24.657,-16.907l-5.868,-3.761c0,0 -7.62,12.205 -24.556,11.204c-9.781,-0.579 -10.974,-17.065 -10.974,-17.065Zm1.015,-5.881c-1.02,-17.007 17.776,-40.317 20.581,-16.881c2.104,17.579 -20.581,16.881 -20.581,16.881Z" style="fill:#e73a3a;"/><path id="v" d="M0,127.662l0.89,-5.304c12.652,-0.023 24.256,-4.416 28.7,11.052c3.28,11.42 14.035,47.945 14.035,47.945c0,0 26.685,-45.338 27.671,-47.544c1.776,-3.972 -3.257,-6.279 -8.682,-6.432l1.195,-5.102l37.161,1.291l-1.627,5.391c-10.71,-0.707 -10.387,2.169 -12.656,5.913c-0.902,1.489 -41.385,73.184 -41.385,73.184l-13.569,-0.181c0,0 -17.037,-65.271 -18.635,-70.609c-1.546,-5.165 -3.001,-9.92 -13.098,-9.604Z" style="fill:#e73a3a;"/><path id="ff" d="M395.067,36.101c0,0 2.551,-8.733 4.102,-13.012c1.9,-5.244 10.12,-14.416 18.317,-17.369c8.797,-3.169 25.452,-2.254 30.752,4.55c7.276,9.339 -5.49,17.126 -12.499,10.878c-4.879,-4.35 -5.263,-11.301 -5.263,-11.301c0,0 -12.441,0.5 -14.097,18.893c-0.122,1.351 -0.462,7.762 -0.462,7.762l16.153,0.053l-2.92,8.703l-13.842,0.106c0,0 -8.454,44.746 -14.223,56.38c-8.938,18.025 -22.008,22.446 -32.734,23.32c-9.184,0.749 -13.836,-1.512 -17.513,-6.731c-7.825,-11.106 5.852,-21.001 15.511,-12.818c4.032,3.415 1.522,12.334 1.522,12.334c0,0 10.387,-2.371 14.605,-14.96c4.484,-13.385 11.575,-57.095 11.575,-57.095l-26.782,0.395c0,0 -5.213,28.872 -13.582,49.814c-8.916,22.308 -23.359,27.831 -37.104,28.539c-7.556,0.389 -13.914,-3.673 -15.112,-8.045c-3.036,-11.073 7.575,-19.09 15.447,-11.078c5.597,5.697 2.727,12.658 2.727,12.658c0,0 11.268,-4.35 15.022,-16.666c4.145,-13.595 11.832,-55.989 11.832,-55.989l-14.272,0.03l3.389,-9.267l11.292,0.544c0,0 1.815,-8.637 4.099,-13.432c3.617,-7.595 12.478,-17.803 20.445,-20.666c11.31,-4.063 24.894,-3.69 30.223,3.021c6.906,8.698 -7.293,15.497 -13.465,10.153c-4.777,-4.135 -4.813,-10.454 -4.813,-10.454c0,0 -11.579,3.719 -13.622,19.411c-0.491,3.767 -1.889,11.353 -1.889,11.353l27.181,-0.014Z" style="fill:#e73a3a;"/><path id="u1" serif:id="u" d="M245.326,39.688c0,0 20.356,-13.19 31.292,-1.024c4.505,5.011 3.093,17.868 -0.183,25.359c-13.681,31.283 6.27,25.054 13.697,16.303l10.781,-45.252l19.846,-1.917c0,0 -11.688,49.176 -11.59,49.821c1.249,8.201 15.802,1.291 15.802,1.291l-2.454,8.242c0,0 -2.928,6.36 -19.672,6.143c-8.264,-0.107 -13.482,-9.703 -13.482,-9.703c0,0 -6.76,5.742 -23.135,9.678c-14.166,3.404 -18.984,-10.343 -15.358,-23.029c2.081,-7.284 4.958,-15.856 6.702,-22.838c3.239,-12.975 -14.444,-6.023 -14.444,-6.023l2.198,-7.051Z" style="fill:#e73a3a;"/><path d="M142.035,17.919c7.083,-5.485 44.8,-8.628 44.8,-8.628c33.082,-2.535 55.974,7.273 53.378,39.465c-3.206,39.751 -44.475,50.242 -71.898,48.525l-22.144,-1.139c-2.095,-0.833 -4.745,-3.809 -6.972,-5.295l0.276,-6.085c0,0 6.028,0.999 8.573,-0.286l14.728,-62.958c0,0 -10.056,-1.001 -21.974,2.647l1.233,-6.246Zm44.845,-1.899l-16.064,72.382c1.108,3.008 44.357,8.694 44,-49.821c-0.185,-30.22 -27.936,-22.561 -27.936,-22.561Z" style="fill:#e73a3a;"/></g></svg>